# xmcd CD database file
#
# Track frame offsets:
#	183
#	29848
#	50210
#	71808
#	95640
#	118435
#	142990
#
# Disc length: 2134 seconds
#
# Revision: 0
# Processed by: cddbd v1.5.2PL0 Copyright (c) Steve Scherf et al.
# Submitted via: CDex 1.51
#
DISCID=74085407
DTITLE=Martial Solal - the solosolal
DYEAR=1979
DGENRE=Jazz
TTITLE0=I'll remember april
TTITLE1=Algue marine
TTITLE2=Tangerine
TTITLE3=Tune up
TTITLE4=Poinciana (song of the tree)
TTITLE5=Stompin' at the savoy
TTITLE6=Lover, come back to me
EXTD=YEAR: 1979
EXTT0=
EXTT1=
EXTT2=
EXTT3=
EXTT4=
EXTT5=
EXTT6=
PLAYORDER=
